<svg width="124" height="32" viewBox="0 0 124 32" fill="none" xmlns="http://www.w3.org/2000/svg">
<path d="M4.46464 28.321L6.82594 25.5449H7.91499L5.262 28.6302L8.10114 31.893H6.94027L4.46464 29.0216V31.8944H3.63357V29.0216L1.15793 31.893H0L2.83767 28.6302L0.186149 25.5449H1.27373L3.63357 28.321V25.5449H4.46464V28.321ZM14.8186 31.893H13.9875V26.9095L10.565 31.893H9.66361V25.5449H10.4947V30.5489L13.9245 25.5449H14.8259L14.8186 31.893ZM20.494 30.0813C20.494 31.2539 19.6453 32 18.5137 32C17.5683 32 16.834 31.4694 16.6303 30.974L16.8604 30.2132C17.0431 30.4838 17.2894 30.7054 17.5776 30.8587C17.8659 31.012 18.1873 31.0923 18.5137 31.0927C19.2129 31.0927 19.6541 30.6867 19.6541 30.0403C19.6541 29.5097 19.2393 29.0143 18.4346 29.0143H17.8952V28.1114H18.4522C18.576 28.12 18.7002 28.1026 18.8169 28.0605C18.9336 28.0184 19.0403 27.9524 19.1301 27.8668C19.2199 27.7811 19.2908 27.6777 19.3384 27.5631C19.386 27.4485 19.4091 27.3252 19.4064 27.2011C19.4095 27.0854 19.3888 26.9703 19.3455 26.8629C19.3022 26.7555 19.2374 26.6582 19.1549 26.5769C19.0724 26.4957 18.9741 26.4323 18.8661 26.3906C18.758 26.349 18.6426 26.33 18.5269 26.3349C17.9084 26.3349 17.4394 26.6618 17.0949 27.122L16.9176 26.3173C17.0851 26.0445 17.3208 25.8199 17.6014 25.6657C17.8821 25.5115 18.198 25.433 18.5181 25.4379C19.5442 25.4379 20.2418 26.1531 20.2418 27.1352C20.2467 27.391 20.1926 27.6444 20.0838 27.876C19.9751 28.1075 19.8145 28.3109 19.6145 28.4705C20.1407 28.7636 20.494 29.3147 20.494 30.0813V30.0813ZM22.4126 25.5449H23.2437V28.1832H26.6838V25.5449H27.5148V31.893H26.6838V29.0729H23.2437V31.893H22.4126V25.5449ZM29.7867 31.893V25.5449H30.6178V28.0366H31.5632C32.7358 28.0366 33.5537 28.8237 33.5537 29.9553C33.5537 31.1279 32.6874 31.8915 31.5544 31.8915L29.7867 31.893ZM31.6922 31.0003C31.8277 31.002 31.9622 30.9762 32.0875 30.9245C32.2128 30.8729 32.3264 30.7964 32.4214 30.6998C32.5164 30.6031 32.5909 30.4883 32.6404 30.3621C32.6899 30.2359 32.7134 30.101 32.7094 29.9655C32.7149 29.8297 32.6924 29.6941 32.6434 29.5673C32.5945 29.4404 32.52 29.325 32.4247 29.228C32.3294 29.131 32.2152 29.0546 32.0892 29.0035C31.9633 28.9524 31.8281 28.9276 31.6922 28.9307H30.6134V31.0003H31.6922ZM25.328 12.5467H30.4126V8.62878H32.686V19.2011H30.4141V14.9637H25.328V19.2011H23.0561V8.62878H25.328V12.5467ZM78.5343 19.1528V18.0491C78.1266 18.4895 77.6324 18.8409 77.0825 19.0813C76.5327 19.3217 75.9391 19.4458 75.3389 19.4459C72.7006 19.4459 69.9157 17.5038 69.9157 13.901C69.9157 9.85267 72.8472 8.31511 75.1733 8.31511C76.4089 8.32292 77.5947 8.80332 78.4873 9.65773V8.58627H80.686V19.1528H78.5343ZM72.1744 13.901C72.1744 15.2832 73.2385 16.9791 75.509 16.9791C77.5288 16.9791 78.4478 15.723 78.4478 15.723V11.9985C77.7369 11.1953 76.6889 10.7541 75.509 10.7541C73.5346 10.7541 72.1744 12.0967 72.1744 13.901ZM86.3041 12.5467H91.3902V8.62878H93.6607V19.2011H91.3888V14.9637H86.3027V19.2011H84.0337V8.62878H86.3041V12.5467ZM107.732 19.2011H110.643V16.2843H107.732V19.2011ZM9.47746 8.89994C9.47746 11.336 7.77574 13.4642 4.70502 13.4642H2.80835V19.2011H0.452913V4.23157H4.69036C7.39318 4.23157 9.47746 6.13703 9.47746 8.89994ZM2.76438 11.0047H4.9967C5.54506 11.0195 6.07708 10.8173 6.4771 10.4419C6.67789 10.2484 6.8355 10.0147 6.93957 9.75603C7.04365 9.49736 7.09184 9.2196 7.08098 8.94098C7.09562 8.39265 6.89337 7.86069 6.51814 7.46059C6.32774 7.26186 6.09768 7.1054 5.84289 7.00137C5.5881 6.89733 5.31428 6.84804 5.03921 6.8567H2.76438V11.0047ZM52.8575 19.506C50.2909 19.506 47.3961 17.5581 47.3961 13.9362C47.3961 10.7468 49.7809 8.39133 52.878 8.39133C55.0575 8.39133 56.4837 9.7105 56.7549 10.1839L56.129 12.0601C56.129 12.0601 54.7952 10.8171 53.2063 10.8171C50.76 10.8171 49.6885 12.5335 49.6885 13.9216C49.6885 15.8681 51.1894 17.0685 53.2327 17.0685C54.7145 17.0685 55.9868 16.1759 56.2785 15.8431L56.9454 17.7178C56.4257 18.2837 55.7937 18.735 55.0899 19.0432C54.3861 19.3513 53.6258 19.5094 52.8575 19.5075V19.506ZM64.1964 19.506C61.6314 19.506 58.7351 17.5581 58.7351 13.9362C58.7351 10.7468 61.1213 8.39133 64.2169 8.39133C66.3965 8.39133 67.8226 9.7105 68.0938 10.1839L67.4679 12.0601C67.4679 12.0601 66.1341 10.8098 64.5496 10.8098C62.1033 10.8098 61.0319 12.5262 61.0319 13.9142C61.0319 15.8607 62.5313 17.0612 64.5746 17.0612C66.0564 17.0612 67.3287 16.1685 67.6204 15.8358L68.2873 17.7105C67.7682 18.2777 67.1366 18.7304 66.4327 19.0398C65.7288 19.3492 64.9682 19.5085 64.1993 19.5075L64.1964 19.506ZM101.381 19.506C98.8157 19.506 95.9208 17.5581 95.9208 13.9362C95.9208 10.7468 98.3056 8.39133 101.401 8.39133C103.581 8.39133 105.007 9.7105 105.278 10.1839L104.654 12.0674C104.654 12.0674 103.321 10.8171 101.737 10.8171C99.2891 10.8171 98.2191 12.5335 98.2191 13.9216C98.2191 15.8681 99.72 17.0685 101.762 17.0685C103.245 17.0685 104.516 16.1759 104.808 15.8431L105.475 17.7178C104.954 18.2846 104.321 18.7366 103.617 19.0447C102.912 19.3529 102.15 19.5105 101.381 19.5075V19.506ZM40.875 17.2136C42.7497 17.2136 43.8549 16.1876 44.1466 15.8168L44.8135 17.5888C44.6669 17.8395 43.166 19.5265 40.8325 19.5265C37.5889 19.5265 35.2627 17.4042 35.2627 13.9831C35.2627 11.3932 36.9864 8.41332 40.557 8.41332C43.6643 8.41332 45.6006 10.9446 45.6006 13.8937C45.6024 14.173 45.5813 14.4519 45.5376 14.7277H37.5815C37.6856 15.5471 38.5973 17.2151 40.875 17.2151V17.2136ZM40.4544 10.7951C38.4346 10.7951 37.6871 12.2609 37.5845 12.8618H43.314C43.0766 11.8285 42.1063 10.7951 40.4544 10.7951ZM15.8783 17.2151C17.7545 17.2151 18.8597 16.1891 19.1513 15.8182L19.8226 17.5888C19.6761 17.8395 18.1737 19.5265 15.8417 19.5265C12.598 19.5265 10.2719 17.4042 10.2719 13.9831C10.2719 11.3932 11.9971 8.41332 15.5661 8.41332C18.6735 8.41332 20.6097 10.9446 20.6097 13.8937C20.6123 14.173 20.5912 14.452 20.5467 14.7277H12.5907C12.6948 15.5471 13.6064 17.2151 15.8827 17.2151H15.8783ZM15.4621 10.7951C13.4423 10.7951 12.6962 12.2609 12.5936 12.8618H18.3217C18.0843 11.8285 17.114 10.7951 15.4665 10.7951H15.4621Z" fill="#50287D"/>
<path d="M115.761 14.9637L107.728 0H123.795L115.761 14.9637Z" fill="#CEDC00"/>
</svg>
