<svg width="128" height="128" viewBox="0 0 128 128" fill="none" xmlns="http://www.w3.org/2000/svg">
<rect width="128" height="128" rx="64" fill="#50287D"/>
<path d="M34.1339 71.7177V68.0922C34.1339 65.8588 34.5164 64.0232 35.2812 62.5852C36.0461 61.1473 37.1322 59.9847 38.5395 59.0975C39.9775 58.1796 41.7061 57.4148 43.7253 56.8029L46.5247 55.9309C47.7791 55.5332 48.8499 55.0437 49.7371 54.4624C50.6549 53.8811 51.3586 53.1621 51.8481 52.3055C52.3376 51.4183 52.5824 50.3934 52.5824 49.2308V49.0472C52.5824 47.2421 51.9705 45.8348 50.7467 44.8252C49.5229 43.785 47.9167 43.2649 45.9281 43.2649C43.8783 43.2649 42.2109 43.8156 40.9259 44.917C39.6715 46.0184 39.0444 47.6399 39.0444 49.7815V50.5157H34.2716V49.8274C34.2716 47.5022 34.7764 45.5441 35.786 43.9532C36.7957 42.3317 38.1877 41.0927 39.9622 40.236C41.7367 39.3794 43.7253 38.951 45.9281 38.951C48.1309 38.951 50.0889 39.3641 51.8022 40.1901C53.5461 41.0162 54.9075 42.1788 55.8866 43.6779C56.8962 45.177 57.401 46.9362 57.401 48.9554V49.3684C57.401 51.4489 56.988 53.1774 56.1619 54.5542C55.3359 55.9309 54.1886 57.0629 52.72 57.9502C51.2821 58.8374 49.6147 59.587 47.7179 60.1989L45.0103 61.0249C43.5723 61.4532 42.4097 61.9274 41.5225 62.4475C40.6659 62.9371 40.0234 63.5336 39.595 64.2373C39.1973 64.941 38.9985 65.8435 38.9985 66.9449V67.4038H57.1256V71.7177H34.1339ZM72.7589 72.3601C70.3419 72.3601 68.2462 71.9165 66.4718 71.0293C64.6973 70.142 63.3205 68.8877 62.3415 67.2662C61.3931 65.6447 60.9189 63.7631 60.9189 61.6215V61.1167H65.8293V61.5756C65.8293 63.5336 66.4259 65.1093 67.619 66.3024C68.8428 67.465 70.5408 68.0463 72.713 68.0463C74.9464 68.0463 76.675 67.4344 77.8988 66.2107C79.1225 64.9869 79.7344 63.3348 79.7344 61.2544V60.8413C79.7344 58.8527 79.1225 57.2618 77.8988 56.0686C76.7056 54.8754 75.1759 54.2788 73.3096 54.2788C72.2694 54.2788 71.3974 54.4471 70.6938 54.7837C70.0207 55.0896 69.47 55.472 69.0417 55.9309C68.644 56.3899 68.3074 56.8335 68.0321 57.2618H61.9285V39.5935H83.4516V43.9532H66.7471V53.4069H67.4814C67.7873 52.8868 68.2156 52.3973 68.7663 51.9384C69.3476 51.4489 70.0972 51.0511 71.015 50.7452C71.9329 50.4392 73.0342 50.2863 74.3192 50.2863C76.2161 50.2863 77.9294 50.6993 79.4591 51.5253C81.0194 52.3208 82.2585 53.514 83.1763 55.1049C84.0941 56.6652 84.553 58.5621 84.553 60.7955V61.3003C84.553 63.5336 84.0788 65.4764 83.1304 67.1285C82.182 68.7806 80.8205 70.0656 79.046 70.9834C77.3022 71.9012 75.2065 72.3601 72.7589 72.3601Z" fill="white"/>
<path d="M86.4234 43.6968L85.6903 43.113L93.2525 33.813L93.972 34.3968L86.4234 43.6968ZM92.4514 43.6832C91.7907 43.6832 91.2612 43.4931 90.863 43.113C90.4738 42.7238 90.2792 42.1988 90.2792 41.5381V41.4566C90.2792 40.7959 90.4738 40.2755 90.863 39.8953C91.2612 39.5061 91.7907 39.3115 92.4514 39.3115C93.0941 39.3115 93.6145 39.5061 94.0127 39.8953C94.411 40.2755 94.6101 40.7959 94.6101 41.4566V41.5381C94.6101 42.1988 94.411 42.7238 94.0127 43.113C93.6236 43.4931 93.1031 43.6832 92.4514 43.6832ZM92.4514 42.8958C92.8316 42.8958 93.1303 42.7736 93.3475 42.5292C93.5738 42.2848 93.6869 41.968 93.6869 41.5788V41.4159C93.6869 41.0177 93.5738 40.7009 93.3475 40.4656C93.1303 40.2212 92.8316 40.099 92.4514 40.099C92.0622 40.099 91.7545 40.2212 91.5282 40.4656C91.311 40.7009 91.2024 41.0177 91.2024 41.4159V41.5788C91.2024 41.968 91.311 42.2848 91.5282 42.5292C91.7545 42.7736 92.0622 42.8958 92.4514 42.8958ZM87.2244 38.1983C86.5637 38.1983 86.0387 38.0037 85.6496 37.6145C85.2604 37.2253 85.0658 36.7048 85.0658 36.0532V35.9717C85.0658 35.311 85.2604 34.7905 85.6496 34.4104C86.0387 34.0212 86.5637 33.8266 87.2244 33.8266C87.8761 33.8266 88.3966 34.0212 88.7858 34.4104C89.184 34.7905 89.3831 35.311 89.3831 35.9717V36.0532C89.3831 36.7048 89.184 37.2253 88.7858 37.6145C88.3966 38.0037 87.8761 38.1983 87.2244 38.1983ZM87.2244 37.4108C87.6046 37.4108 87.9078 37.2886 88.1341 37.0442C88.3604 36.7999 88.4735 36.4831 88.4735 36.0939V35.931C88.4735 35.5327 88.3604 35.2159 88.1341 34.9806C87.9078 34.7362 87.6046 34.614 87.2244 34.614C86.8352 34.614 86.5275 34.7362 86.3012 34.9806C86.084 35.2159 85.9754 35.5327 85.9754 35.931V36.0939C85.9754 36.4831 86.084 36.7999 86.3012 37.0442C86.5275 37.2886 86.8352 37.4108 87.2244 37.4108Z" fill="white"/>
<path d="M38.6944 78.5678V79.893H34.9176V86.7177H33.6919V78.5678H38.6944ZM40.0722 84.3323C39.8514 83.8133 39.741 83.2501 39.741 82.6427C39.741 82.0354 39.8514 81.4722 40.0722 80.9531C40.2931 80.4341 40.5913 79.9869 40.9667 79.6114C41.3422 79.2249 41.7784 78.9267 42.2754 78.7169C42.7833 78.496 43.3134 78.3856 43.8656 78.3856C44.4177 78.3856 44.9423 78.496 45.4392 78.7169C45.9472 78.9267 46.3889 79.2249 46.7644 79.6114C47.1399 79.9869 47.438 80.4341 47.6589 80.9531C47.8797 81.4722 47.9902 82.0354 47.9902 82.6427C47.9902 83.2501 47.8797 83.8133 47.6589 84.3323C47.438 84.8514 47.1399 85.3041 46.7644 85.6906C46.3889 86.0661 45.9472 86.3643 45.4392 86.5851C44.9423 86.795 44.4177 86.8999 43.8656 86.8999C43.3134 86.8999 42.7833 86.795 42.2754 86.5851C41.7784 86.3643 41.3422 86.0661 40.9667 85.6906C40.5913 85.3041 40.2931 84.8514 40.0722 84.3323ZM43.8656 79.7108C43.4459 79.7108 43.0594 79.7826 42.706 79.9261C42.3527 80.0697 42.049 80.274 41.795 80.539C41.541 80.793 41.3367 81.1022 41.1821 81.4666C41.0385 81.82 40.9667 82.2121 40.9667 82.6427C40.9667 83.0734 41.0385 83.471 41.1821 83.8354C41.3367 84.1888 41.541 84.498 41.795 84.763C42.049 85.017 42.3527 85.2158 42.706 85.3593C43.0594 85.5029 43.4459 85.5747 43.8656 85.5747C44.2742 85.5747 44.6551 85.5029 45.0085 85.3593C45.373 85.2158 45.6822 85.017 45.9362 84.763C46.1901 84.498 46.3889 84.1888 46.5325 83.8354C46.6871 83.471 46.7644 83.0734 46.7644 82.6427C46.7644 82.2121 46.6871 81.82 46.5325 81.4666C46.3889 81.1022 46.1901 80.793 45.9362 80.539C45.6822 80.274 45.373 80.0697 45.0085 79.9261C44.6551 79.7826 44.2742 79.7108 43.8656 79.7108ZM49.7134 85.3925C49.9232 85.0943 50.1331 84.7465 50.3429 84.3489C50.5527 83.9403 50.7404 83.4765 50.9061 82.9575C51.0828 82.4384 51.2263 81.8587 51.3368 81.2182C51.4472 80.5666 51.5024 79.8488 51.5024 79.0648V78.5678H56.6872V85.3925H58.1449V88.8876H56.9688V86.7177H50.0778V88.8876H48.9017V85.3925H49.7134ZM55.4614 85.3925V79.893H52.6619C52.6288 80.5445 52.5515 81.163 52.43 81.7482C52.3196 82.3335 52.1871 82.8691 52.0325 83.355C51.8889 83.8299 51.7343 84.244 51.5687 84.5974C51.4141 84.9397 51.276 85.2047 51.1546 85.3925H55.4614ZM59.816 84.3323C59.5951 83.8133 59.4847 83.2501 59.4847 82.6427C59.4847 82.0354 59.5951 81.4722 59.816 80.9531C60.0368 80.4341 60.335 79.9869 60.7104 79.6114C61.0859 79.2249 61.5221 78.9267 62.0191 78.7169C62.527 78.496 63.0571 78.3856 63.6093 78.3856C64.1614 78.3856 64.686 78.496 65.1829 78.7169C65.6909 78.9267 66.1326 79.2249 66.5081 79.6114C66.8836 79.9869 67.1817 80.4341 67.4026 80.9531C67.6235 81.4722 67.7339 82.0354 67.7339 82.6427C67.7339 83.2501 67.6235 83.8133 67.4026 84.3323C67.1817 84.8514 66.8836 85.3041 66.5081 85.6906C66.1326 86.0661 65.6909 86.3643 65.1829 86.5851C64.686 86.795 64.1614 86.8999 63.6093 86.8999C63.0571 86.8999 62.527 86.795 62.0191 86.5851C61.5221 86.3643 61.0859 86.0661 60.7104 85.6906C60.335 85.3041 60.0368 84.8514 59.816 84.3323ZM63.6093 79.7108C63.1896 79.7108 62.8031 79.7826 62.4497 79.9261C62.0964 80.0697 61.7927 80.274 61.5387 80.539C61.2847 80.793 61.0804 81.1022 60.9258 81.4666C60.7822 81.82 60.7104 82.2121 60.7104 82.6427C60.7104 83.0734 60.7822 83.471 60.9258 83.8354C61.0804 84.1888 61.2847 84.498 61.5387 84.763C61.7927 85.017 62.0964 85.2158 62.4497 85.3593C62.8031 85.5029 63.1896 85.5747 63.6093 85.5747C64.0179 85.5747 64.3989 85.5029 64.7522 85.3593C65.1167 85.2158 65.4259 85.017 65.6799 84.763C65.9339 84.498 66.1326 84.1888 66.2762 83.8354C66.4308 83.471 66.5081 83.0734 66.5081 82.6427C66.5081 82.2121 66.4308 81.82 66.2762 81.4666C66.1326 81.1022 65.9339 80.793 65.6799 80.539C65.4259 80.274 65.1167 80.0697 64.7522 79.9261C64.3989 79.7826 64.0179 79.7108 63.6093 79.7108ZM72.7796 78.5678C73.1772 78.5678 73.5416 78.623 73.8729 78.7335C74.2042 78.8329 74.4913 78.9819 74.7343 79.1807C74.9772 79.3684 75.165 79.6003 75.2975 79.8764C75.43 80.1415 75.4963 80.4451 75.4963 80.7875C75.4963 81.5274 75.2588 82.0851 74.784 82.4605C75.1374 82.6483 75.4079 82.8967 75.5956 83.2059C75.7944 83.5151 75.8938 83.9017 75.8938 84.3655C75.8938 84.7188 75.822 85.0391 75.6785 85.3262C75.5349 85.6133 75.3361 85.8618 75.0821 86.0716C74.8281 86.2704 74.53 86.4305 74.1876 86.552C73.8453 86.6624 73.4754 86.7177 73.0778 86.7177H69.8146V78.5678H72.7796ZM71.0404 83.2556V85.3925H73.4588C73.7901 85.3925 74.0717 85.2986 74.3036 85.1109C74.5465 84.9121 74.668 84.6526 74.668 84.3323C74.668 84.001 74.5465 83.7415 74.3036 83.5538C74.0717 83.355 73.7901 83.2556 73.4588 83.2556H71.0404ZM71.0404 79.893V81.9305H73.1109C73.4312 81.9305 73.7017 81.8421 73.9226 81.6654C74.1545 81.4777 74.2705 81.2292 74.2705 80.92C74.2705 80.5998 74.1545 80.3513 73.9226 80.1746C73.7017 79.9869 73.4312 79.893 73.1109 79.893H71.0404ZM85.1685 78.5678H86.3943V86.7177H85.1685V78.5678ZM77.996 86.7177V78.5678H79.2218V81.0857H80.8617C81.2813 81.0857 81.6789 81.1574 82.0543 81.301C82.4298 81.4446 82.7556 81.6433 83.0316 81.8973C83.3077 82.1513 83.5231 82.4495 83.6777 82.7918C83.8433 83.1342 83.9261 83.5041 83.9261 83.9017C83.9261 84.3102 83.8433 84.6857 83.6777 85.0281C83.5231 85.3704 83.3022 85.6686 83.0151 85.9225C82.739 86.1655 82.4132 86.3587 82.0378 86.5023C81.6623 86.6459 81.2647 86.7177 80.8451 86.7177H77.996ZM81.1267 85.3925C81.5905 85.3925 81.966 85.2489 82.2531 84.9618C82.5513 84.6747 82.7004 84.3102 82.7004 83.8685C82.7004 83.4158 82.5457 83.0624 82.2365 82.8084C81.9273 82.5433 81.5574 82.4108 81.1267 82.4108H79.2218V85.3925H81.1267ZM89.4551 86.7177H87.8815L90.9956 82.3777L88.1962 78.5678H89.7533L91.7576 81.3176L93.7454 78.5678H95.319L92.5362 82.4108L95.6835 86.7177H94.1429L91.7908 83.4875L89.4551 86.7177Z" fill="white"/>
</svg>
